<svg width="35" height="35" viewBox="0 0 35 35" fill="none" xmlns="http://www.w3.org/2000/svg">
<path d="M13.3916 31.9922H10.6115C10.6019 31.9922 10.5957 31.9518 10.5957 31.9414V31.3447C10.5957 31.3344 10.6019 31.3086 10.6115 31.3086H13.3916C13.4012 31.3086 13.3984 31.3344 13.3984 31.3447V31.9414C13.3984 31.9518 13.4012 31.9922 13.3916 31.9922Z" fill="#D4E1F4"/>
<path d="M6.7429 28.2324C6.62977 28.2324 6.5625 28.1246 6.5625 28.0115V5.74219H5.37571C5.26258 5.74219 5.19531 5.86708 5.19531 5.98015V29.3787C5.19531 29.4917 5.26258 29.5996 5.37571 29.5996H18.6272C18.7404 29.5996 18.7988 29.4917 18.7988 29.3787V28.2324H6.7429Z" fill="#D4E1F4"/>
<path d="M4.1084 33.7012H19.9205C20.1613 33.7005 20.3995 33.6521 20.6215 33.5589C20.8435 33.4656 21.0448 33.3293 21.2138 33.1579C21.3828 32.9864 21.5162 32.7831 21.6062 32.5598C21.6962 32.3365 21.7411 32.0976 21.7383 31.8568V24.4727H20.7812V31.8568C20.7842 31.9719 20.7642 32.0865 20.7223 32.1937C20.6804 32.301 20.6176 32.3988 20.5374 32.4814C20.4572 32.5641 20.3614 32.6299 20.2555 32.675C20.1495 32.7201 20.0357 32.7436 19.9205 32.7441H13.9442C14.1992 32.5391 14.3555 32.2746 14.3555 31.9414V31.3447C14.3555 31.0115 14.1993 30.6934 13.9442 30.5566H18.6272C19.268 30.5566 19.7559 30.0195 19.7559 29.3787V24.4043H18.7988V29.3787C18.7988 29.4917 18.7404 29.5996 18.6272 29.5996H5.37571C5.26258 29.5996 5.19531 29.4917 5.19531 29.3787V5.98015C5.19531 5.86708 5.26258 5.74219 5.37571 5.74219H18.6272C18.7404 5.74219 18.7988 5.86708 18.7988 5.98015V9.84375H19.7559V5.98015C19.7559 5.33935 19.268 4.78516 18.6272 4.78516H5.37571C4.73491 4.78516 4.23828 5.33935 4.23828 5.98015V29.3787C4.23828 30.0195 4.73491 30.5566 5.37571 30.5566H10.0588C9.80376 30.6934 9.63867 31.0115 9.63867 31.3447V31.9414C9.63867 32.2746 9.80376 32.5391 10.0589 32.7441H4.1084C3.87224 32.7444 3.64556 32.6512 3.47781 32.485C3.31005 32.3188 3.21482 32.093 3.21289 31.8568V13.868C3.21096 13.7758 3.18465 13.6858 3.13662 13.6071C3.08858 13.5284 3.02055 13.4638 2.93945 13.4199V12.4007C3.02055 12.3569 3.08858 12.2923 3.13662 12.2136C3.18465 12.1349 3.21096 12.0448 3.21289 11.9526V10.6805C3.21096 10.5883 3.18465 10.4982 3.13662 10.4195C3.08858 10.3408 3.02055 10.2762 2.93945 10.2324V9.21382C3.02055 9.16994 3.08858 9.10537 3.13662 9.02665C3.18465 8.94794 3.21096 8.85791 3.21289 8.76572V3.9174C3.21397 3.67892 3.30822 3.45031 3.47553 3.28036C3.64285 3.11042 3.86996 3.01261 4.1084 3.00781H19.9205C20.4105 3.00781 20.7812 3.4274 20.7812 3.9174V8.88672H21.7383V3.9174C21.7383 2.89967 20.9385 2.05078 19.9205 2.05078H4.1084C3.61621 2.05587 3.14584 2.2546 2.79911 2.60396C2.45239 2.95333 2.25722 3.42519 2.25586 3.9174V8.43076C2.05078 8.56748 1.98242 8.78931 1.98242 9.03916V10.407C1.98242 10.6568 2.05078 10.8787 2.25586 11.0154V11.6179C2.05078 11.7547 1.98242 11.9765 1.98242 12.2263V13.5948C1.98242 13.8446 2.05078 14.0665 2.25586 14.2032V31.8568C2.25803 32.3467 2.45416 32.8158 2.80135 33.1615C3.14853 33.5071 3.61849 33.7012 4.1084 33.7012V33.7012ZM10.5957 31.9414V31.3447C10.5957 31.3344 10.6019 31.3086 10.6115 31.3086H13.3916C13.4012 31.3086 13.3984 31.3344 13.3984 31.3447V31.9414C13.3984 31.9518 13.4012 31.9922 13.3916 31.9922H10.6115C10.6019 31.9922 10.5957 31.9518 10.5957 31.9414Z" fill="#00AFEF"/>
<path d="M9.43359 3.28125C9.30668 3.28125 9.18497 3.33166 9.09523 3.4214C9.00549 3.51114 8.95508 3.63286 8.95508 3.75977C8.95508 3.88668 9.00549 4.00839 9.09523 4.09813C9.18497 4.18787 9.30668 4.23828 9.43359 4.23828H14.6289C14.7558 4.23828 14.8775 4.18787 14.9673 4.09813C15.057 4.00839 15.1074 3.88668 15.1074 3.75977C15.1074 3.63286 15.057 3.51114 14.9673 3.4214C14.8775 3.33166 14.7558 3.28125 14.6289 3.28125H9.43359Z" fill="#00AFEF"/>
<path d="M10.1019 18.0764L14.0136 20.1182V22.6918C14.0051 22.7423 14.0008 22.7935 14.0006 22.8447C14.0006 23.553 14.7741 24.082 16.3652 24.4625C17.6886 24.7788 19.4406 24.953 21.2984 24.953C23.1562 24.953 24.9081 24.7788 26.2314 24.4625C27.8226 24.0823 28.596 23.553 28.596 22.8447C28.596 22.7774 28.5887 22.7103 28.5742 22.6447V20.1567L32.4976 18.0749C32.9488 17.8356 33.223 17.4554 33.2502 17.0318C33.2774 16.6082 33.0538 16.1956 32.6368 15.9005L22.6359 8.81965C21.8858 8.28864 20.7106 8.28871 19.9605 8.81965L9.95993 15.9004C9.54294 16.1956 9.3192 16.608 9.34647 17.0318C9.37375 17.4556 9.64793 17.8356 10.1019 18.0764ZM27.6172 21.6889C27.1727 21.4868 26.7082 21.3319 26.2314 21.2267C24.9081 20.9104 23.1561 20.7362 21.2984 20.7362C19.4406 20.7362 17.6886 20.9104 16.3652 21.2267C15.8852 21.3324 15.4177 21.4888 14.9707 21.6932V18.0116L21.2981 14.834L27.6172 18.0114V21.6889ZM25.7998 23.5793C24.5728 23.8478 22.9741 23.9957 21.2984 23.9957C19.6226 23.9957 18.0239 23.8478 16.7968 23.5793C15.4993 23.2953 15.0481 22.966 14.966 22.8444C15.0481 22.7229 15.4992 22.3936 16.7968 22.1096C18.0239 21.8411 19.6226 21.6932 21.2984 21.6932C22.9741 21.6932 24.5728 21.8411 25.7998 22.1096C27.0976 22.3936 27.5488 22.7227 27.6308 22.8444C27.5488 22.966 27.0976 23.2953 25.7998 23.5793ZM10.5128 16.6818L20.5138 9.60107C20.9318 9.30514 21.6653 9.30528 22.0832 9.60107L32.0842 16.6819C32.2197 16.7776 32.3007 16.8886 32.2955 16.9708C32.2902 17.0529 32.1959 17.152 32.0494 17.2298L28.5742 19.0733V17.7164C28.5742 17.6277 28.5495 17.5408 28.503 17.4653C28.4565 17.3898 28.3899 17.3287 28.3107 17.2889L21.5133 13.8709C21.4466 13.8374 21.373 13.82 21.2984 13.82C21.2238 13.82 21.1502 13.8374 21.0836 13.8709L14.2774 17.2889C14.1981 17.3287 14.1315 17.3898 14.0849 17.4653C14.0383 17.5408 14.0137 17.6277 14.0136 17.7164V19.0384L10.5478 17.2294C10.4013 17.1517 10.3069 17.0525 10.3017 16.9704C10.2965 16.8883 10.3769 16.7776 10.5128 16.6815V16.6818Z" fill="#0635C9"/>
</svg>
