<svg width="35" height="35" viewBox="0 0 35 35" fill="none" xmlns="http://www.w3.org/2000/svg">
<path d="M26.5677 15.9004C26.5663 16.1325 26.6108 16.3626 26.6986 16.5775C26.7864 16.7923 26.9159 16.9877 27.0795 17.1524C27.2431 17.317 27.4377 17.4477 27.652 17.5368C27.8663 17.626 28.0961 17.6719 28.3282 17.6719C28.5603 17.6719 28.7902 17.626 29.0045 17.5368C29.2188 17.4477 29.4134 17.317 29.577 17.1524C29.7406 16.9877 29.87 16.7923 29.9579 16.5775C30.0457 16.3626 30.0902 16.1325 30.0887 15.9004C30.093 15.4991 29.958 15.1087 29.7068 14.7957C29.4556 14.4827 29.1037 14.2664 28.7109 14.1837V6.06956C28.7109 6.05322 28.7251 6.03722 28.7232 6.0217C28.7276 6.00678 28.7312 5.99163 28.734 5.97631C28.734 5.89336 28.7086 5.8124 28.6613 5.74428C28.6139 5.67616 28.5469 5.62414 28.4692 5.59521L17.4057 1.52755C17.3146 1.49399 17.2146 1.49399 17.1236 1.52755L6.05876 5.59487C5.98057 5.62359 5.91297 5.67544 5.86497 5.74352C5.81697 5.81159 5.79083 5.89268 5.79004 5.97597C5.78786 6.05864 5.81109 6.13998 5.8566 6.20902C5.90211 6.27807 5.96771 6.33149 6.04454 6.36207L9.36523 7.657V11.7168C9.36504 11.8003 9.39042 11.882 9.43797 11.9507C9.48552 12.0194 9.55296 12.0719 9.63122 12.1011C9.70218 12.1276 9.77539 12.1522 9.84375 12.1779V15.6654C9.84375 17.6498 10.633 19.5325 12.0293 20.9666C12.3593 21.3123 12.7268 21.6201 13.125 21.8843V23.6523H10.0806C7.21964 23.6523 4.92188 26.0023 4.92188 28.8632V33.0874C4.92188 33.3139 5.07568 33.4961 5.30223 33.4961H29.229C29.4556 33.4961 29.668 33.3139 29.668 33.0874V28.8632C29.668 26.0023 27.3116 23.6523 24.4506 23.6523H21.3965V21.8975C21.7975 21.6282 22.168 21.3161 22.5014 20.9667C23.893 19.5528 24.6744 17.6494 24.6777 15.6655V12.1784C24.7461 12.1527 24.8194 12.1278 24.8907 12.1012C24.969 12.072 25.0364 12.0194 25.0838 11.9507C25.1313 11.8819 25.1566 11.8003 25.1562 11.7168V7.657L27.8906 6.57959V14.1902C27.5121 14.2888 27.1769 14.5102 26.9375 14.8197C26.6981 15.1291 26.5681 15.5092 26.5677 15.9004V15.9004ZM29.2876 15.9004C29.2876 16.0867 29.2324 16.2689 29.1289 16.4238C29.0254 16.5788 28.8782 16.6995 28.7061 16.7709C28.5339 16.8422 28.3445 16.8608 28.1617 16.8245C27.979 16.7881 27.8111 16.6984 27.6793 16.5667C27.5476 16.4349 27.4578 16.267 27.4215 16.0843C27.3851 15.9015 27.4038 15.7121 27.4751 15.5399C27.5464 15.3678 27.6671 15.2206 27.8221 15.1171C27.977 15.0136 28.1591 14.9583 28.3455 14.9583C28.5952 14.9587 28.8347 15.058 29.0113 15.2346C29.1879 15.4112 29.2873 15.6506 29.2876 15.9004V15.9004ZM28.8477 28.8632V32.6758H5.74219V28.8632C5.74219 26.4546 7.67197 24.4727 10.0806 24.4727H13.3885L16.9418 26.8049C17.0078 26.8468 17.0843 26.869 17.1625 26.8689C17.2406 26.8688 17.3171 26.8463 17.3829 26.8042L21.1193 24.4727H24.4506C26.8593 24.4727 28.8477 26.4546 28.8477 28.8632ZM20.5762 23.8574L17.1759 25.9867L13.9453 23.8629V22.3855C14.9671 22.924 16.1045 23.2063 17.2595 23.2081C18.4145 23.2098 19.5527 22.931 20.5762 22.3956V23.8574ZM23.8574 15.6658C23.8566 17.4349 23.1615 19.1329 21.9216 20.3947C20.67 21.6799 19.0163 22.3881 17.2672 22.3881C16.396 22.3863 15.5342 22.2089 14.7333 21.8664C13.9323 21.5239 13.2086 21.0233 12.6055 20.3947C11.364 19.1334 10.6669 17.4353 10.6641 15.6655V12.4562C12.7989 13.1277 15.0233 13.4711 17.2612 13.4748C19.4992 13.4763 21.7241 13.1328 23.8574 12.4565V15.6658ZM24.3359 11.4304C19.7604 13.0627 14.7611 13.0627 10.1855 11.4304V7.9763L17.1104 10.6686C17.2084 10.7059 17.3168 10.7059 17.4148 10.6686L24.3359 7.9763V11.4304ZM24.6293 6.98086C24.6059 6.98763 24.5832 6.99648 24.5614 7.00731L17.2661 9.84655L9.97076 7.00683C9.94898 6.99601 9.92626 6.98718 9.90288 6.98044L7.35991 5.99067L17.2661 2.34957L27.1724 5.99081L24.6293 6.98086Z" fill="url(#paint0_linear)"/>
<defs>
<linearGradient id="paint0_linear" x1="17.5053" y1="1.64062" x2="17.5053" y2="33.5149" gradientUnits="userSpaceOnUse">
<stop stop-color="#00ACEA"/>
<stop offset="1" stop-color="#00ACEA"/>
</linearGradient>
</defs>
</svg>
