<svg width="40" height="40" viewBox="0 0 40 40" fill="none" xmlns="http://www.w3.org/2000/svg">
<path d="M31.7915 1.04802C31.5047 0.946393 31.203 0.89431 30.8988 0.89431C29.3645 0.89431 28.1165 2.1929 28.1165 3.78938V12.5721H29.9019V3.78938C29.9019 2.51779 30.6939 1.4361 31.7915 1.04802V1.04802Z" fill="#D4E1F4"/>
<path d="M8.61445 33.8964C8.41913 33.7319 8.13395 33.7319 7.93895 33.8964L7.37524 34.3652L9.43222 36.0769L10.3335 35.3268L8.61445 33.8964Z" fill="#D4E1F4"/>
<path d="M5.53094 4.32705C5.53094 2.43109 7.0134 0.888275 8.836 0.888275H7.03309C5.21081 0.888275 3.72803 2.43077 3.72803 4.32705V35.5447L5.53094 34.0444V4.32705Z" fill="#D4E1F4"/>
<path d="M14.53 33.8964C14.335 33.7319 14.0495 33.7319 13.8545 33.8964L13.2908 34.3655L15.3471 36.0769L16.2484 35.3268L14.53 33.8964Z" fill="#D4E1F4"/>
<path d="M3.04077 36.8782C3.20973 36.9592 3.41012 36.9366 3.55653 36.8194L6.29281 34.631L9.02877 36.8194C9.20693 36.962 9.46036 36.962 9.63853 36.8194L12.3742 34.631L15.1098 36.8194C15.288 36.962 15.5414 36.962 15.7196 36.8194L18.7601 34.3871C18.7668 34.3817 18.7731 34.3763 18.7792 34.3709L19.2117 33.9872L18.5641 33.2574L18.1411 33.6331L15.4153 35.8136L12.68 33.6252C12.5018 33.4826 12.2484 33.4826 12.0702 33.6252L9.3346 35.8136L6.59737 33.6252C6.4192 33.4826 6.16609 33.4826 5.98761 33.6252L3.73977 35.4237V4.44106C3.74199 2.52795 5.29211 0.977833 7.20522 0.97561H28.4301C27.5762 1.72066 27.0864 2.79821 27.0864 3.93134V21.0807H28.0621V13.4924H34.4616C34.7309 13.4924 34.9494 13.2743 34.9494 13.0046V3.93134C34.9469 1.83435 33.3009 0.10766 31.2064 0.00444614V0H7.20522C4.75381 0.00285823 2.76702 1.98965 2.76416 4.44106V36.4383C2.76416 36.626 2.8715 36.7969 3.04077 36.8782V36.8782ZM33.9738 3.93134V12.5168H28.0621V3.93134C28.0706 2.305 29.3914 0.991171 31.0178 0.991171C32.6444 0.991171 33.9653 2.305 33.9738 3.93134Z" fill="#00AFEF"/>
<path d="M6.40822 16.5419H6.62544C6.89507 16.5419 7.11325 16.3234 7.11325 16.0541C7.11325 15.7847 6.89507 15.5662 6.62544 15.5662H6.40822C6.13891 15.5662 5.92041 15.7847 5.92041 16.0541C5.92041 16.3234 6.13891 16.5419 6.40822 16.5419Z" fill="#00AFEF"/>
<path d="M10.4377 15.5662H8.79518C8.52587 15.5662 8.30737 15.7847 8.30737 16.0541C8.30737 16.3234 8.52587 16.5419 8.79518 16.5419H10.4377C10.7073 16.5419 10.9255 16.3234 10.9255 16.0541C10.9255 15.7847 10.7073 15.5662 10.4377 15.5662Z" fill="#00AFEF"/>
<path d="M24.9059 16.0541C24.9059 15.7847 24.6874 15.5662 24.4181 15.5662H12.6428C12.3732 15.5662 12.155 15.7847 12.155 16.0541C12.155 16.3234 12.3732 16.5419 12.6428 16.5419H24.4181C24.6874 16.5419 24.9059 16.3234 24.9059 16.0541Z" fill="#00AFEF"/>
<path d="M6.40822 11.909H6.62544C6.89507 11.909 7.11325 11.6905 7.11325 11.4212C7.11325 11.1519 6.89507 10.9334 6.62544 10.9334H6.40822C6.13891 10.9334 5.92041 11.1519 5.92041 11.4212C5.92041 11.6905 6.13891 11.909 6.40822 11.909Z" fill="#00AFEF"/>
<path d="M10.4377 10.9334H8.79518C8.52587 10.9334 8.30737 11.1519 8.30737 11.4212C8.30737 11.6905 8.52587 11.909 8.79518 11.909H10.4377C10.7073 11.909 10.9255 11.6905 10.9255 11.4212C10.9255 11.1519 10.7073 10.9334 10.4377 10.9334Z" fill="#00AFEF"/>
<path d="M24.4181 10.9334H12.6428C12.3732 10.9334 12.155 11.1519 12.155 11.4212C12.155 11.6905 12.3732 11.909 12.6428 11.909H24.4181C24.6874 11.909 24.9059 11.6905 24.9059 11.4212C24.9059 11.1519 24.6874 10.9334 24.4181 10.9334Z" fill="#00AFEF"/>
<path d="M6.40822 7.27642H6.62544C6.89507 7.27642 7.11325 7.05792 7.11325 6.78862C7.11325 6.51931 6.89507 6.30081 6.62544 6.30081H6.40822C6.13891 6.30081 5.92041 6.51931 5.92041 6.78862C5.92041 7.05792 6.13891 7.27642 6.40822 7.27642Z" fill="#00AFEF"/>
<path d="M10.4377 6.30081H8.79518C8.52587 6.30081 8.30737 6.51931 8.30737 6.78862C8.30737 7.05792 8.52587 7.27642 8.79518 7.27642H10.4377C10.7073 7.27642 10.9255 7.05792 10.9255 6.78862C10.9255 6.51931 10.7073 6.30081 10.4377 6.30081Z" fill="#00AFEF"/>
<path d="M24.4181 6.30081H12.6428C12.3732 6.30081 12.155 6.51931 12.155 6.78862C12.155 7.05792 12.3732 7.27642 12.6428 7.27642H24.4181C24.6874 7.27642 24.9059 7.05792 24.9059 6.78862C24.9059 6.51931 24.6874 6.30081 24.4181 6.30081Z" fill="#00AFEF"/>
<path d="M6.40822 21.1747H6.62544C6.89507 21.1747 7.11325 20.9562 7.11325 20.6869C7.11325 20.4173 6.89507 20.1991 6.62544 20.1991H6.40822C6.13891 20.1991 5.92041 20.4173 5.92041 20.6869C5.92041 20.9562 6.13891 21.1747 6.40822 21.1747Z" fill="#00AFEF"/>
<path d="M10.9255 20.6869C10.9255 20.4173 10.7073 20.1991 10.4377 20.1991H8.79518C8.52587 20.1991 8.30737 20.4173 8.30737 20.6869C8.30737 20.9562 8.52587 21.1747 8.79518 21.1747H10.4377C10.7073 21.1747 10.9255 20.9562 10.9255 20.6869V20.6869Z" fill="#00AFEF"/>
<path d="M20.273 20.6869C20.273 20.4173 20.0545 20.1991 19.7852 20.1991H12.6428C12.3732 20.1991 12.155 20.4173 12.155 20.6869C12.155 20.9562 12.3732 21.1747 12.6428 21.1747H19.7852C20.0545 21.1747 20.273 20.9562 20.273 20.6869V20.6869Z" fill="#00AFEF"/>
<path d="M7.78969 26.2236C8.28322 26.224 8.68305 26.6238 8.68337 27.117C8.68337 27.3866 8.90187 27.6048 9.17117 27.6048C9.44048 27.6048 9.65898 27.3866 9.65898 27.117C9.65771 26.2732 9.0921 25.5342 8.2775 25.3128V24.9768C8.2775 24.7072 8.05932 24.489 7.78969 24.489C7.52039 24.489 7.30189 24.7072 7.30189 24.9768V25.3128C6.3971 25.5574 5.81339 26.4342 5.93692 27.3631C6.06015 28.2924 6.85251 28.9863 7.78969 28.9863C8.28322 28.9834 8.68527 29.3814 8.68813 29.8746C8.69067 30.3681 8.29306 30.7701 7.79954 30.773C7.79636 30.773 7.79319 30.7724 7.78969 30.7724C7.78652 30.7724 7.78334 30.7724 7.77985 30.773C7.29046 30.7673 6.89666 30.3693 6.89602 29.88C6.89602 29.6103 6.67752 29.3922 6.40822 29.3922C6.13891 29.3922 5.92041 29.6103 5.92041 29.88C5.92136 30.7238 6.48729 31.4628 7.30189 31.6841V32.083C7.30189 32.3526 7.52007 32.5708 7.78969 32.5708C8.059 32.5708 8.2775 32.3526 8.2775 32.083V31.6841C9.18197 31.4396 9.76569 30.5628 9.64247 29.6338C9.51893 28.7046 8.72688 28.0107 7.78969 28.0107C7.29617 28.0107 6.89602 27.6105 6.89602 27.117C6.89602 26.6235 7.29617 26.2236 7.78969 26.2236V26.2236Z" fill="#00AFEF"/>
<path d="M12.2337 29.5306C11.9643 29.5306 11.7458 29.7491 11.7458 30.0184C11.7458 30.2877 11.9643 30.5062 12.2337 30.5062H16.3571C16.6264 30.5062 16.8449 30.2877 16.8449 30.0184C16.8449 29.7491 16.6264 29.5306 16.3571 29.5306H12.2337Z" fill="#00AFEF"/>
<path d="M27.5182 40C32.905 40 37.2714 35.6333 37.2714 30.2464C37.2714 24.8599 32.9047 20.4932 27.5182 20.4932C22.1314 20.4932 17.7646 24.8599 17.7646 30.2464C17.7707 35.6307 22.1339 39.994 27.5182 40V40ZM27.5182 21.4688C32.3661 21.4688 36.2958 25.3989 36.2958 30.2468C36.2958 35.0943 32.3661 39.0244 27.5182 39.0244C22.6703 39.0244 18.7403 35.0943 18.7403 30.2464C18.746 25.4011 22.6726 21.4742 27.5182 21.4688V21.4688Z" fill="#0635C9"/>
<path d="M25.3621 33.1085C25.5342 33.3098 25.8353 33.3371 26.0408 33.1701L32.2975 28.0799C32.5042 27.9094 32.5347 27.6039 32.3654 27.3958C32.1965 27.1878 31.891 27.1554 31.682 27.3231L25.7947 32.1126L23.4176 29.329C23.3045 29.1952 23.1289 29.1324 22.9571 29.1641C22.7849 29.1956 22.643 29.3169 22.5849 29.4817C22.5267 29.6465 22.5614 29.8301 22.6757 29.9625L25.3621 33.1085Z" fill="#0635C9"/>
</svg>
