<svg width="56" height="56" viewBox="0 0 56 56" fill="none" xmlns="http://www.w3.org/2000/svg">
<g clip-path="url(#clip0)">
<path d="M8.91225 12.2078C8.91403 10.6837 10.1487 9.44897 11.6729 9.4472H54.6341V8.79317C54.6323 7.26903 53.3976 6.03434 51.874 6.03256H8.25823C6.73454 6.03434 5.4994 7.26903 5.49762 8.79317V25.5702C6.53802 24.7459 7.68734 24.0692 8.91225 23.5579V12.2078Z" fill="#D4E1F4"/>
<path d="M51.874 4.66672H8.25827C5.98051 4.66939 4.13447 6.51498 4.13181 8.79318V27.0717H5.49766V8.79318C5.49944 7.26904 6.73457 6.03435 8.25827 6.03257H51.874C53.3977 6.03435 54.6324 7.26904 54.6342 8.79318V33.8023C54.6328 35.3264 53.3977 36.5615 51.874 36.5633H28.2254V37.9292H51.874C54.1517 37.9265 55.9978 36.0805 56 33.8023V8.79318C55.9973 6.51542 54.1517 4.66939 51.874 4.66672Z" fill="#00AFEF"/>
<path d="M41.6532 33.4368C43.8025 34.4701 46.3808 33.8805 47.8671 32.0158C49.3535 30.1511 49.3535 27.5065 47.8671 25.6418C46.3808 23.7771 43.8025 23.1875 41.6532 24.2208C39.5039 23.1875 36.9256 23.7771 35.4393 25.6418C33.9529 27.5065 33.9529 30.1511 35.4393 32.0158C36.9256 33.8805 39.5039 34.4701 41.6532 33.4368ZM43.8683 25.082C45.3106 25.0807 46.6258 25.9077 47.25 27.2082C47.8738 28.5087 47.696 30.0519 46.7925 31.1764C45.889 32.3008 44.42 32.8068 43.0159 32.4773C43.9977 31.5174 44.5512 30.2022 44.5512 28.8293C44.5512 27.4563 43.9977 26.1411 43.0159 25.1816C43.2952 25.1158 43.5811 25.082 43.8683 25.0816V25.082ZM40.1211 28.8293C40.1215 27.6359 40.6906 26.5142 41.6532 25.8094C42.6162 26.5142 43.1853 27.6359 43.1853 28.8293C43.1853 30.0226 42.6162 31.1444 41.6532 31.8491C40.6902 31.1439 40.1211 30.0222 40.1211 28.8288V28.8293ZM35.6909 28.8293C35.6905 27.6853 36.2125 26.604 37.1088 25.893C38.0051 25.1821 39.1767 24.9202 40.2905 25.1812C39.3088 26.1411 38.7557 27.4563 38.7557 28.8293C38.7557 30.2022 39.3088 31.5169 40.2905 32.4769C39.1767 32.7383 38.0047 32.476 37.1088 31.765C36.2125 31.0541 35.6905 29.9728 35.6909 28.8288V28.8293Z" fill="#00AFEF"/>
<path d="M27.53 10.9113H9.30842C8.93094 10.9113 8.62549 11.2168 8.62549 11.5942C8.62549 11.9713 8.93094 12.2772 9.30842 12.2772H27.53C27.9071 12.2772 28.213 11.9713 28.213 11.5942C28.213 11.2168 27.9071 10.9113 27.53 10.9113Z" fill="#00AFEF"/>
<path d="M31.9784 12.2772C32.3559 12.2772 32.6613 11.9713 32.6613 11.5942C32.6613 11.2168 32.3559 10.9113 31.9784 10.9113H30.0052C29.6282 10.9113 29.3223 11.2168 29.3223 11.5942C29.3223 11.9713 29.6282 12.2772 30.0052 12.2772H31.9784Z" fill="#00AFEF"/>
<path d="M9.30842 15.7207H10.1594C10.5369 15.7207 10.8423 15.4148 10.8423 15.0378C10.8423 14.6603 10.5369 14.3549 10.1594 14.3549H9.30842C8.93094 14.3549 8.62549 14.6603 8.62549 15.0378C8.62549 15.4148 8.93094 15.7207 9.30842 15.7207Z" fill="#00AFEF"/>
<path d="M12.7089 14.3549C12.3314 14.3549 12.0259 14.6603 12.0259 15.0378C12.0259 15.4148 12.3314 15.7207 12.7089 15.7207H24.0865C24.464 15.7207 24.7695 15.4148 24.7695 15.0378C24.7695 14.6603 24.464 14.3549 24.0865 14.3549H12.7089Z" fill="#00AFEF"/>
<path d="M25.8792 15.0378C25.8792 15.4148 26.1847 15.7207 26.5621 15.7207H31.9784C32.3559 15.7207 32.6614 15.4148 32.6614 15.0378C32.6614 14.6603 32.3559 14.3549 31.9784 14.3549H26.5621C26.1847 14.3549 25.8792 14.6603 25.8792 15.0378Z" fill="#00AFEF"/>
<path d="M14.4562 22.4512C6.47225 22.4512 0 28.9235 0 36.9074C0 44.8913 6.47225 51.3636 14.4562 51.3636C22.4401 51.3636 28.9128 44.8913 28.9128 36.9074C28.9035 28.927 22.4366 22.4601 14.4562 22.4512ZM14.4562 49.9977C7.22676 49.9977 1.36585 44.1368 1.36585 36.9074C1.36585 29.6775 7.22676 23.8171 14.4562 23.8171C21.686 23.8171 27.5469 29.678 27.5469 36.9074C27.5385 44.1337 21.6825 49.9897 14.4562 49.9977Z" fill="#0635C9"/>
<path d="M20.1472 36.2245H15.1391V31.2163C15.1391 30.8393 14.8336 30.5334 14.4561 30.5334C14.0791 30.5334 13.7732 30.8393 13.7732 31.2163V36.2245H8.76508C8.38805 36.2245 8.08215 36.5304 8.08215 36.9074C8.08215 37.2844 8.38805 37.5903 8.76508 37.5903H13.7732V42.5984C13.7732 42.9755 14.0791 43.2814 14.4561 43.2814C14.8336 43.2814 15.1391 42.9755 15.1391 42.5984V37.5903H20.1472C20.5247 37.5903 20.8301 37.2844 20.8301 36.9074C20.8301 36.5304 20.5247 36.2245 20.1472 36.2245Z" fill="#0635C9"/>
</g>
<defs>
<clipPath id="clip0">
<rect width="56" height="56" fill="white"/>
</clipPath>
</defs>
</svg>
