<svg width="40" height="41" viewBox="0 0 40 41" fill="none" xmlns="http://www.w3.org/2000/svg">
<path d="M20.1618 4.14445C20.5826 4.15379 20.995 4.0268 21.3377 3.78246C21.3116 3.76472 21.2854 3.7476 21.2602 3.73048C21.0364 3.57952 20.8883 3.47992 20.5409 3.47992C20.1939 3.47992 20.0457 3.57952 19.8216 3.73048C19.6784 3.83258 19.5256 3.92035 19.365 3.99256C19.6171 4.09777 19.8885 4.14943 20.1618 4.14445V4.14445Z" fill="#D4E1F4"/>
<path d="M24.1076 4.14445C24.5284 4.15379 24.9408 4.02649 25.2838 3.78215C25.2574 3.76472 25.2315 3.74729 25.2063 3.73048C24.9822 3.57952 24.8341 3.47992 24.4867 3.47992C24.1394 3.47992 23.9915 3.57952 23.7674 3.73048C23.6242 3.83258 23.4714 3.92035 23.3108 3.99256C23.5629 4.09776 23.8343 4.14943 24.1076 4.14445V4.14445Z" fill="#D4E1F4"/>
<path d="M27.9553 4.14227V3.58139C27.8716 3.6259 27.7909 3.67601 27.7138 3.73048C27.5706 3.83257 27.4174 3.92035 27.2568 3.99256C27.4781 4.08531 27.715 4.13636 27.9553 4.14227Z" fill="#D4E1F4"/>
<path d="M16.2165 4.14445C16.6373 4.15379 17.0497 4.0268 17.3924 3.78246C17.366 3.76472 17.3398 3.7476 17.3149 3.73048C17.0908 3.57952 16.9427 3.47992 16.5956 3.47992C16.2482 3.47992 16.1004 3.57952 15.8763 3.73048C15.7331 3.83258 15.5803 3.92035 15.4197 3.99256C15.6721 4.09777 15.9432 4.14943 16.2165 4.14445Z" fill="#D4E1F4"/>
<path d="M14.7223 22.8737V4.14227C14.6896 4.14351 14.6569 4.14444 14.623 4.14444C13.9837 4.14444 13.6428 3.91505 13.3696 3.73048C13.2924 3.67601 13.2118 3.62621 13.1287 3.58139V22.8737C16.0728 24.7396 17.5895 28.206 16.9623 31.6348C17.7732 31.1776 18.2752 30.3197 18.2777 29.3891V27.8939C18.278 27.7687 18.2849 27.6436 18.2989 27.5194C17.6882 25.5993 16.4223 23.955 14.7223 22.8737Z" fill="#D4E1F4"/>
<path d="M26.6838 34.103V27.8938C26.6845 26.9694 26.3079 26.0845 25.6415 25.4437H24.0479C24.7142 26.0845 25.0909 26.9694 25.0902 27.8938V34.103C25.0921 35.6733 26.3645 36.946 27.9348 36.9478H29.5284C27.9581 36.946 26.6857 35.6733 26.6838 34.103V34.103Z" fill="#D4E1F4"/>
<path d="M39.5211 36.9478H39.3926C38.7094 36.8809 38.188 36.3066 38.1874 35.62V28.2885C38.1849 26.1904 36.4846 24.49 34.3864 24.4875H28.9112V3.00184C28.9112 2.73758 28.6971 2.52375 28.4331 2.52375C27.7935 2.52375 27.453 2.75315 27.1791 2.93741C26.9553 3.08868 26.8071 3.18828 26.4598 3.18828C26.1124 3.18828 25.9643 3.08868 25.7405 2.93741C25.4666 2.75315 25.1261 2.52375 24.4865 2.52375C23.8471 2.52375 23.5066 2.75315 23.2331 2.93741C23.009 3.08868 22.8608 3.18828 22.5137 3.18828C22.1664 3.18828 22.0185 3.08868 21.7944 2.93741C21.5209 2.75315 21.18 2.52375 20.541 2.52375C19.9017 2.52375 19.5609 2.75315 19.2873 2.93741C19.0632 3.08868 18.9154 3.18828 18.568 3.18828C18.2207 3.18828 18.0728 3.08868 17.8487 2.93741C17.5751 2.75315 17.2343 2.52375 16.595 2.52375C15.956 2.52375 15.6152 2.75315 15.3419 2.93741C15.1178 3.08868 14.9696 3.18828 14.6226 3.18828C14.2756 3.18828 14.1274 3.08868 13.9033 2.93741C13.6297 2.75315 13.2892 2.52375 12.6502 2.52375C12.3859 2.52375 12.1721 2.73758 12.1721 3.00184V23.0987C12.1721 23.3626 12.3859 23.5768 12.6502 23.5768C12.9141 23.5768 13.1283 23.3626 13.1283 23.0987V3.58139C13.2114 3.62621 13.292 3.67601 13.3692 3.73048C13.6428 3.91505 13.9833 4.14475 14.6226 4.14475C15.2619 4.14475 15.6024 3.91536 15.876 3.73079C16.1001 3.58014 16.248 3.48023 16.595 3.48023C16.9424 3.48023 17.0902 3.58014 17.3146 3.73079C17.5882 3.91536 17.9287 4.14537 18.568 4.14537C19.2073 4.14537 19.5481 3.91567 19.8217 3.73141C20.0455 3.58045 20.1937 3.48054 20.541 3.48054C20.8881 3.48054 21.0359 3.58045 21.26 3.73141C21.5339 3.91567 21.8744 4.14568 22.5137 4.14568C23.1531 4.14568 23.4939 3.91629 23.7672 3.73172C23.9916 3.58076 24.1394 3.48116 24.4865 3.48116C24.8338 3.48116 24.982 3.58076 25.2061 3.73172C25.4797 3.91629 25.8205 4.146 26.4598 4.146C27.0991 4.146 27.4399 3.9166 27.7135 3.73203C27.7907 3.67756 27.8713 3.62776 27.955 3.58294V24.4875H21.7876C21.7783 24.4875 21.7686 24.4875 21.7593 24.4884C21.7344 24.4878 21.7089 24.4875 21.684 24.4875C19.8034 24.4897 18.2798 26.0136 18.2776 27.8938V29.3891C18.2748 30.6101 17.4176 31.6625 16.2221 31.9115C15.9762 31.9666 15.8091 32.195 15.8309 32.4459C15.8524 32.6971 16.0562 32.8935 16.308 32.9059H24.1341V34.103C24.1363 36.2011 25.8367 37.9015 27.9348 37.904H39.3531C39.4088 37.908 39.4648 37.9099 39.5218 37.9099C39.7869 37.9071 40.0002 37.6911 39.9998 37.4259C39.9995 37.1617 39.7854 36.9475 39.5211 36.9478V36.9478ZM18.1304 31.9498C18.8332 31.2831 19.2319 30.3577 19.2335 29.3891V27.8938C19.2335 26.5408 20.3303 25.4437 21.6836 25.4437C23.037 25.4437 24.1338 26.5408 24.1338 27.8938V31.9498H18.1304ZM27.9345 36.9478C26.3642 36.946 25.0918 35.6736 25.09 34.1033V27.8938C25.0906 26.9694 24.7143 26.0845 24.0479 25.4437H34.3864C35.9567 25.4455 37.2294 26.7179 37.2313 28.2882V35.62C37.2306 36.0962 37.3794 36.5606 37.6567 36.9478H27.9345Z" fill="#00AFEF"/>
<path d="M17.417 9.44691H25.6733C25.9372 9.44691 26.1514 9.23277 26.1514 8.96883C26.1514 8.70489 25.9372 8.49075 25.6733 8.49075H17.417C17.1531 8.49075 16.939 8.70489 16.939 8.96883C16.939 9.23277 17.1531 9.44691 17.417 9.44691V9.44691Z" fill="#00AFEF"/>
<path d="M15.4097 9.44692H15.8212C16.0855 9.44692 16.2993 9.23278 16.2993 8.96883C16.2993 8.70489 16.0855 8.49075 15.8212 8.49075H15.4097C15.1458 8.49075 14.9316 8.70489 14.9316 8.96883C14.9316 9.23278 15.1458 9.44692 15.4097 9.44692Z" fill="#00AFEF"/>
<path d="M17.417 12.626H25.6733C25.9372 12.626 26.1514 12.4119 26.1514 12.148C26.1514 11.8837 25.9372 11.6699 25.6733 11.6699H17.417C17.1531 11.6699 16.939 11.8837 16.939 12.148C16.939 12.4119 17.1531 12.626 17.417 12.626V12.626Z" fill="#00AFEF"/>
<path d="M15.4097 12.626H15.8212C16.0855 12.626 16.2993 12.4119 16.2993 12.148C16.2993 11.8837 16.0855 11.6699 15.8212 11.6699H15.4097C15.1458 11.6699 14.9316 11.8837 14.9316 12.148C14.9316 12.4119 15.1458 12.626 15.4097 12.626Z" fill="#00AFEF"/>
<path d="M17.417 15.8048H25.6733C25.9372 15.8048 26.1514 15.5907 26.1514 15.3268C26.1514 15.0628 25.9372 14.8487 25.6733 14.8487H17.417C17.1531 14.8487 16.939 15.0628 16.939 15.3268C16.939 15.5907 17.1531 15.8048 17.417 15.8048V15.8048Z" fill="#00AFEF"/>
<path d="M15.4097 15.8049H15.8212C16.0855 15.8049 16.2993 15.5907 16.2993 15.3268C16.2993 15.0628 16.0855 14.8487 15.8212 14.8487H15.4097C15.1458 14.8487 14.9316 15.0628 14.9316 15.3268C14.9316 15.5907 15.1458 15.8049 15.4097 15.8049Z" fill="#00AFEF"/>
<path d="M17.417 18.984H25.6733C25.9372 18.984 26.1514 18.7698 26.1514 18.5059C26.1514 18.2416 25.9372 18.0278 25.6733 18.0278H17.417C17.1531 18.0278 16.939 18.2416 16.939 18.5059C16.939 18.7698 17.1531 18.984 17.417 18.984V18.984Z" fill="#00AFEF"/>
<path d="M15.4097 18.984H15.8212C16.0855 18.984 16.2993 18.7698 16.2993 18.5059C16.2993 18.2416 16.0855 18.0278 15.8212 18.0278H15.4097C15.1458 18.0278 14.9316 18.2416 14.9316 18.5059C14.9316 18.7698 15.1458 18.984 15.4097 18.984Z" fill="#00AFEF"/>
<path d="M17.417 21.7958H25.6733C25.9372 21.7958 26.1514 21.582 26.1514 21.3177C26.1514 21.0538 25.9372 20.8397 25.6733 20.8397H17.417C17.1531 20.8397 16.939 21.0538 16.939 21.3177C16.939 21.582 17.1531 21.7958 17.417 21.7958V21.7958Z" fill="#00AFEF"/>
<path d="M15.4097 21.7958H15.8212C16.0855 21.7958 16.2993 21.582 16.2993 21.3177C16.2993 21.0538 16.0855 20.8397 15.8212 20.8397H15.4097C15.1458 20.8397 14.9316 21.0538 14.9316 21.3177C14.9316 21.582 15.1458 21.7958 15.4097 21.7958Z" fill="#00AFEF"/>
<path d="M28.6541 28.8818C29.0992 28.8824 29.4596 29.2428 29.4599 29.6876C29.4599 29.9518 29.674 30.1657 29.938 30.1657C30.2022 30.1657 30.4161 29.9518 30.4161 29.6876C30.4151 28.8992 29.891 28.207 29.1322 27.9922V27.6984C29.1322 27.4341 28.9183 27.2203 28.6541 27.2203C28.3901 27.2203 28.176 27.4341 28.176 27.6984V27.9922C27.3294 28.2309 26.7884 29.0576 26.9089 29.9291C27.0294 30.8006 27.7745 31.4499 28.6541 31.4496C29.0967 31.4508 29.4556 31.8084 29.458 32.2507C29.4605 32.693 29.1057 33.0547 28.6634 33.0609C28.6603 33.0609 28.6572 33.0603 28.6541 33.0603C28.651 33.0603 28.6482 33.0603 28.6451 33.0609C28.2037 33.0556 27.8489 32.6968 27.8483 32.2554C27.8483 31.9915 27.6341 31.7773 27.3702 31.7773C27.1059 31.7773 26.8921 31.9915 26.8921 32.2554C26.893 33.0441 27.4172 33.7363 28.176 33.9511V34.3034C28.176 34.5674 28.3901 34.7815 28.6541 34.7815C28.918 34.7815 29.1322 34.5674 29.1322 34.3034V33.9511C29.9791 33.7124 30.52 32.8857 30.3996 32.0142C30.2788 31.1424 29.534 30.4934 28.6541 30.4934C28.3643 30.4965 28.0951 30.3434 27.9494 30.0928C27.8037 29.8426 27.8037 29.5329 27.9494 29.2823C28.0951 29.0318 28.3643 28.8789 28.6541 28.8818V28.8818Z" fill="#00AFEF"/>
<path d="M34.6696 33.0914H32.5438C32.2798 33.0914 32.0657 33.3053 32.0657 33.5695C32.0657 33.8335 32.2798 34.0476 32.5438 34.0476H34.6696C34.9336 34.0476 35.1477 33.8335 35.1477 33.5695C35.1477 33.3053 34.9336 33.0914 34.6696 33.0914Z" fill="#00AFEF"/>
<path d="M34.6696 30.5227H32.5438C32.2798 30.5227 32.0657 30.7368 32.0657 31.0008C32.0657 31.2647 32.2798 31.4788 32.5438 31.4788H34.6696C34.9336 31.4788 35.1477 31.2647 35.1477 31.0008C35.1477 30.7368 34.9336 30.5227 34.6696 30.5227Z" fill="#00AFEF"/>
<path d="M34.6696 27.9542H32.5438C32.2798 27.9542 32.0657 28.1684 32.0657 28.4323C32.0657 28.6966 32.2798 28.9104 32.5438 28.9104H34.6696C34.9336 28.9104 35.1477 28.6966 35.1477 28.4323C35.1477 28.1684 34.9336 27.9542 34.6696 27.9542Z" fill="#00AFEF"/>
<path d="M8.551 21.5421C3.82839 21.5421 0 25.3705 0 30.0931C0 34.8158 3.82839 38.6441 8.551 38.6441C13.2736 38.6441 17.102 34.8158 17.102 30.0931C17.0967 25.3727 13.2711 21.5474 8.551 21.5421V21.5421ZM8.551 37.688C4.35627 37.688 0.956164 34.2876 0.956164 30.0931C0.956164 25.8984 4.35658 22.4983 8.551 22.4983C12.7454 22.4983 16.1458 25.8987 16.1458 30.0931C16.1412 34.2857 12.7436 37.6833 8.551 37.688V37.688Z" fill="#0635C9"/>
<path d="M8.28952 24.6693L4.33756 28.0569C4.31515 28.0728 4.2943 28.0909 4.275 28.1105L3.0605 29.1513C2.86254 29.3237 2.84075 29.6235 3.01163 29.8227C3.18251 30.0222 3.48193 30.0465 3.68269 29.8771L4.13867 29.4868V35.1544C4.13867 35.4183 4.3525 35.6325 4.61675 35.6325H12.4852C12.7491 35.6325 12.9633 35.4183 12.9633 35.1544V29.479L13.4155 29.8743C13.6144 30.048 13.9163 30.0278 14.0903 29.8289C14.264 29.63 14.2438 29.3281 14.0449 29.1541L8.91544 24.6721C8.73679 24.5155 8.47004 24.5143 8.28952 24.6693V24.6693ZM12.0071 34.676H5.09483V28.667L8.59734 25.6644L12.0068 28.6433L12.0071 34.676Z" fill="#0635C9"/>
</svg>
