<svg width="56" height="56" viewBox="0 0 56 56" fill="none" xmlns="http://www.w3.org/2000/svg">
<g clip-path="url(#clip0)">
<path d="M8.91225 12.2078C8.91403 10.6837 10.1487 9.44897 11.6729 9.4472H54.6341V8.79317C54.6323 7.26903 53.3976 6.03434 51.874 6.03256H8.25823C6.73454 6.03434 5.4994 7.26903 5.49762 8.79317V25.5702C6.53802 24.7459 7.68734 24.0692 8.91225 23.5579V12.2078Z" fill="#D4E1F4"/>
<path d="M51.874 4.66672H8.25824C5.98048 4.66939 4.13444 6.51498 4.13177 8.79318V27.0717H5.49763V8.79318C5.49941 7.26904 6.73454 6.03435 8.25824 6.03257H51.874C53.3977 6.03435 54.6323 7.26904 54.6341 8.79318V33.8023C54.6328 35.3264 53.3977 36.5615 51.874 36.5633H28.2254V37.9292H51.874C54.1517 37.9265 55.9978 36.0805 56 33.8023V8.79318C55.9973 6.51542 54.1517 4.66939 51.874 4.66672Z" fill="#00AFEF"/>
<path d="M41.6531 33.4368C43.8024 34.4701 46.3807 33.8805 47.8671 32.0158C49.3534 30.1511 49.3534 27.5065 47.8671 25.6418C46.3807 23.7771 43.8024 23.1876 41.6531 24.2208C39.5039 23.1876 36.9256 23.7771 35.4392 25.6418C33.9529 27.5065 33.9529 30.1511 35.4392 32.0158C36.9256 33.8805 39.5039 34.4701 41.6531 33.4368ZM43.8682 25.0821C45.3105 25.0807 46.6257 25.9077 47.2499 27.2082C47.8737 28.5087 47.6959 30.0519 46.7924 31.1764C45.889 32.3008 44.42 32.8068 43.0159 32.4773C43.9976 31.5174 44.5511 30.2022 44.5511 28.8293C44.5511 27.4563 43.9976 26.1411 43.0159 25.1816C43.2951 25.1158 43.581 25.0821 43.8682 25.0816V25.0821ZM40.121 28.8293C40.1214 27.6359 40.6906 26.5142 41.6531 25.8094C42.6162 26.5142 43.1853 27.6359 43.1853 28.8293C43.1853 30.0226 42.6162 31.1444 41.6531 31.8491C40.6901 31.1439 40.121 30.0222 40.121 28.8288V28.8293ZM35.6909 28.8293C35.6904 27.6853 36.2124 26.604 37.1087 25.893C38.0051 25.1821 39.1771 24.9202 40.2904 25.1812C39.3087 26.1411 38.7556 27.4558 38.7556 28.8293C38.7556 30.2022 39.3087 31.517 40.2904 32.4769C39.1771 32.7383 38.0051 32.476 37.1087 31.765C36.2124 31.0541 35.6904 29.9728 35.6909 28.8288V28.8293Z" fill="#00AFEF"/>
<path d="M27.53 10.9113H9.30793C8.93089 10.9113 8.625 11.2168 8.625 11.5942C8.625 11.9713 8.93089 12.2772 9.30793 12.2772H27.53C27.907 12.2772 28.2129 11.9713 28.2129 11.5942C28.2129 11.2168 27.907 10.9113 27.53 10.9113Z" fill="#00AFEF"/>
<path d="M31.9784 12.2772C32.3559 12.2772 32.6613 11.9713 32.6613 11.5942C32.6613 11.2168 32.3559 10.9113 31.9784 10.9113H30.0052C29.6282 10.9113 29.3223 11.2168 29.3223 11.5942C29.3223 11.9713 29.6282 12.2772 30.0052 12.2772H31.9784Z" fill="#00AFEF"/>
<path d="M9.30793 15.7207H10.1594C10.5368 15.7207 10.8423 15.4148 10.8423 15.0378C10.8423 14.6603 10.5368 14.3549 10.1594 14.3549H9.30793C8.93089 14.3549 8.625 14.6603 8.625 15.0378C8.625 15.4148 8.93089 15.7207 9.30793 15.7207Z" fill="#00AFEF"/>
<path d="M12.7084 14.3549C12.3313 14.3549 12.0255 14.6603 12.0255 15.0378C12.0255 15.4148 12.3313 15.7207 12.7084 15.7207H24.0865C24.464 15.7207 24.7694 15.4148 24.7694 15.0378C24.7694 14.6603 24.464 14.3549 24.0865 14.3549H12.7084Z" fill="#00AFEF"/>
<path d="M25.8792 15.0378C25.8792 15.4148 26.1846 15.7207 26.5621 15.7207H31.9784C32.3558 15.7207 32.6613 15.4148 32.6613 15.0378C32.6613 14.6603 32.3558 14.3549 31.9784 14.3549H26.5621C26.1846 14.3549 25.8792 14.6603 25.8792 15.0378Z" fill="#00AFEF"/>
<path d="M14.4562 22.4512C6.47225 22.4512 0 28.9235 0 36.9074C0 44.8913 6.47225 51.3636 14.4562 51.3636C22.4401 51.3636 28.9128 44.8913 28.9128 36.9074C28.9035 28.927 22.4366 22.4601 14.4562 22.4512ZM14.4562 49.9977C7.22676 49.9977 1.36585 44.1368 1.36585 36.9074C1.36585 29.6775 7.22676 23.8171 14.4562 23.8171C21.686 23.8171 27.5469 29.678 27.5469 36.9074C27.5385 44.1337 21.6825 49.9897 14.4562 49.9977Z" fill="#0635C9"/>
<path d="M14.4561 30.8775C15.9114 30.8789 17.0905 32.058 17.0923 33.5128C17.0923 33.8898 17.3977 34.1957 17.7752 34.1957C18.1522 34.1957 18.4581 33.8898 18.4581 33.5128C18.4554 31.5671 17.0558 29.9047 15.1391 29.5704V28.3708C15.1391 27.9938 14.8336 27.6879 14.4561 27.6879C14.0791 27.6879 13.7732 27.9938 13.7732 28.3708V29.5708C11.7267 29.9252 10.2914 31.7868 10.4693 33.8565C10.6471 35.9257 12.3789 37.5152 14.4561 37.5147C15.9091 37.5094 17.0927 38.681 17.1016 40.1344C17.1105 41.5874 15.9416 42.7732 14.4886 42.7856C14.4779 42.7856 14.4673 42.7843 14.4561 42.7843C14.4455 42.7843 14.4348 42.7852 14.4241 42.7856C12.9818 42.7665 11.8222 41.5932 11.8205 40.1509C11.8205 39.7734 11.5146 39.4679 11.1375 39.4679C10.7605 39.4679 10.4546 39.7734 10.4546 40.1509C10.4573 42.096 11.8569 43.7584 13.7732 44.0928V45.444C13.7732 45.821 14.0791 46.1269 14.4561 46.1269C14.8336 46.1269 15.1391 45.821 15.1391 45.444V44.0928C17.1856 43.7384 18.6208 41.8768 18.443 39.8076C18.2651 37.7384 16.5334 36.1489 14.4561 36.1489C13.5104 36.1551 12.6337 35.654 12.1593 34.8359C11.6844 34.0178 11.6844 33.0081 12.1593 32.19C12.6337 31.372 13.5104 30.8713 14.4561 30.8775Z" fill="#0635C9"/>
</g>
<defs>
<clipPath id="clip0">
<rect width="56" height="56" fill="white"/>
</clipPath>
</defs>
</svg>
