<svg width="35" height="35" viewBox="0 0 35 35" fill="none" xmlns="http://www.w3.org/2000/svg">
<path d="M33.1121 16.4529L27.2573 11.457C27.2662 11.4216 27.2723 11.3854 27.2754 11.349V4.8164C27.2727 4.63004 27.1983 4.45186 27.0678 4.31879C26.9373 4.18571 26.7606 4.10794 26.5744 4.10157H23.308C22.9305 4.10157 22.627 4.43885 22.627 4.8164V7.52132L17.9443 3.53255C17.8205 3.42717 17.6633 3.36931 17.5007 3.36931C17.3382 3.36931 17.1809 3.42717 17.0571 3.53255L1.88836 16.4529C1.81859 16.5106 1.76099 16.5817 1.71891 16.6619C1.67683 16.7421 1.65111 16.8298 1.64324 16.9201C1.63537 17.0103 1.64551 17.1012 1.67307 17.1875C1.70063 17.2738 1.74506 17.3537 1.80378 17.4227C1.8625 17.4916 1.93434 17.5482 2.01512 17.5892C2.0959 17.6301 2.18402 17.6546 2.27435 17.6612C2.36468 17.6679 2.45542 17.6565 2.54131 17.6277C2.62719 17.5989 2.70651 17.5534 2.77464 17.4937L17.5 4.95093L22.7697 9.44126L25.919 12.1204L32.2254 17.4934C32.3634 17.611 32.5425 17.669 32.7232 17.6545C32.904 17.6401 33.0715 17.5544 33.1891 17.4164C33.3067 17.2784 33.3647 17.0994 33.3502 16.9186C33.3358 16.7379 33.2501 16.5703 33.1121 16.4527L33.1121 16.4529ZM25.9082 5.46876V10.3018L23.9941 8.68609V5.46876H25.9082Z" fill="url(#paint0_linear)"/>
<path d="M30.1005 17.8318L28.1777 16.1918L17.9439 7.45329C17.8202 7.3476 17.6627 7.28954 17.5 7.28954C17.3372 7.28954 17.1798 7.3476 17.0561 7.45329L6.82226 16.1916L4.89951 17.8318C4.83119 17.8901 4.77501 17.9612 4.73419 18.0412C4.69337 18.1212 4.6687 18.2084 4.6616 18.2979C4.65449 18.3874 4.66509 18.4774 4.69279 18.5629C4.72049 18.6483 4.76474 18.7274 4.82302 18.7957C4.88009 18.8639 4.95018 18.9201 5.0292 18.9609C5.10821 19.0018 5.19457 19.0265 5.28324 19.0336C5.37191 19.0407 5.4611 19.0301 5.54563 19.0024C5.63015 18.9747 5.70831 18.9304 5.77554 18.8722L6.63085 18.1329V30.9471C6.63515 31.1328 6.711 31.3096 6.84256 31.4406C6.97411 31.5717 7.15121 31.6468 7.33687 31.6504H27.6631C27.8488 31.6468 28.0259 31.5717 28.1574 31.4406C28.289 31.3096 28.3648 31.1328 28.3691 30.9471V18.1329L29.2244 18.872C29.3458 18.9775 29.5012 19.0356 29.6619 19.0355C29.7605 19.0356 29.8579 19.0142 29.9473 18.9727C30.0367 18.9313 30.116 18.8708 30.1796 18.7955C30.2377 18.7271 30.2817 18.6478 30.3092 18.5624C30.3367 18.4769 30.347 18.3868 30.3397 18.2973C30.3323 18.2078 30.3074 18.1206 30.2664 18.0408C30.2253 17.9609 30.169 17.8899 30.1005 17.8318V17.8318ZM20.2344 30.2832H14.7656V22.9004H20.2344V30.2832ZM21.6016 30.2832V22.2369C21.6016 21.8593 21.3242 21.5332 20.9466 21.5332H14.0534C13.6758 21.5332 13.3984 21.8593 13.3984 22.2369V30.2832H7.99804V16.9668L17.5 8.87236L27.0019 16.9668V30.2832H21.6016Z" fill="url(#paint1_linear)"/>
<defs>
<linearGradient id="paint0_linear" x1="17.5001" y1="2.16126" x2="17.5001" y2="33.4625" gradientUnits="userSpaceOnUse">
<stop stop-color="#C8C8C8"/>
<stop offset="1" stop-color="#C8C8C8"/>
</linearGradient>
<linearGradient id="paint1_linear" x1="6579.69" y1="777.482" x2="6579.69" y2="11932.1" gradientUnits="userSpaceOnUse">
<stop stop-color="#C8C8C8"/>
<stop offset="1" stop-color="#C8C8C8"/>
</linearGradient>
</defs>
</svg>
