<svg width="35" height="35" viewBox="0 0 35 35" fill="none" xmlns="http://www.w3.org/2000/svg">
<path d="M17.5 33.5417C26.3596 33.5417 33.5417 26.3596 33.5417 17.5C33.5417 8.64042 26.3596 1.45831 17.5 1.45831C8.64042 1.45831 1.45831 8.64042 1.45831 17.5C1.45831 26.3596 8.64042 33.5417 17.5 33.5417Z" fill="#FEFEFE"/>
<path d="M17.5 0C7.85066 0 0 7.85066 0 17.5C0 27.1493 7.85066 35 17.5 35C27.1493 35 35 27.1493 35 17.5C35 7.85066 27.1493 0 17.5 0ZM17.5 32.0833C9.45868 32.0833 2.91669 25.5413 2.91669 17.5C2.91669 9.45875 9.45868 2.91669 17.5 2.91669C25.5413 2.91669 32.0833 9.45868 32.0833 17.5C32.0833 25.5413 25.5413 32.0833 17.5 32.0833Z" fill="#00AFEF"/>
<path d="M17.5 11.6667C19.1109 11.6667 20.4167 10.3608 20.4167 8.74999C20.4167 7.13915 19.1109 5.83331 17.5 5.83331C15.8892 5.83331 14.5833 7.13915 14.5833 8.74999C14.5833 10.3608 15.8892 11.6667 17.5 11.6667Z" fill="#746F6F"/>
<path d="M17.5 10.2083C18.3054 10.2083 18.9583 9.55541 18.9583 8.75001C18.9583 7.9446 18.3054 7.29169 17.5 7.29169C16.6946 7.29169 16.0417 7.9446 16.0417 8.75001C16.0417 9.55541 16.6946 10.2083 17.5 10.2083Z" fill="#00AFEF"/>
<path d="M19.6875 13.125H13.8542C13.4511 13.125 13.125 13.4511 13.125 13.8542V16.7709C13.125 17.1739 13.4511 17.5001 13.8542 17.5001H14.5834V28.4376C14.5834 28.8406 14.9095 29.1668 15.3126 29.1668H19.6876C20.0906 29.1668 20.4168 28.8406 20.4168 28.4376V13.8542C20.4167 13.4511 20.0905 13.125 19.6875 13.125Z" fill="#746F6F"/>
<path d="M18.9583 27.7083H16.0416V16.7708C16.0416 16.3678 15.7155 16.0416 15.3124 16.0416H14.5833V14.5833H18.9583V27.7083H18.9583Z" fill="#00AFEF"/>
<path d="M17.5 0C7.85066 0 0 7.85066 0 17.5C0 27.1493 7.85066 35 17.5 35C27.1493 35 35 27.1493 35 17.5C35 7.85066 27.1493 0 17.5 0Z" fill="url(#paint0_linear)"/>
<defs>
<linearGradient id="paint0_linear" x1="1.64033" y1="10.1068" x2="33.3599" y2="24.896" gradientUnits="userSpaceOnUse">
<stop stop-color="white" stop-opacity="0.2"/>
<stop offset="1" stop-color="white" stop-opacity="0"/>
</linearGradient>
</defs>
</svg>
