<svg width="56" height="56" viewBox="0 0 56 56" fill="none" xmlns="http://www.w3.org/2000/svg">
<path d="M10.8464 8.97153H13.1848V5.37446H10.8464V8.97153Z" fill="#D4E1F4"/>
<path d="M3.74138 42.6829V10.6915C3.74321 8.86054 5.22707 7.37668 7.05849 7.37486H4.72012C2.8887 7.37668 1.40484 8.86054 1.40302 10.6915V42.6829C1.40484 44.5143 2.8887 45.9981 4.72012 46H7.05849C5.22707 45.9981 3.74321 44.5143 3.74138 42.6829Z" fill="#D4E1F4"/>
<path d="M4.72013 47.4034H21.9706V46.0004H4.72013C2.88871 45.9986 1.40485 44.5147 1.40302 42.6833V10.6915C1.40485 8.86054 2.88871 7.37668 4.72013 7.37485H9.44345V9.67303C9.44345 10.0603 9.75767 10.3745 10.145 10.3745H23.148C23.5353 10.3745 23.8495 10.0603 23.8495 9.67303V7.37485H28.5729C30.4038 7.37668 31.8881 8.86054 31.89 10.6915V19.9057H33.293V10.6915C33.2898 8.08595 31.1784 5.97457 28.5729 5.97183H23.8495V4.67294C23.8495 4.28519 23.5353 3.97143 23.148 3.97143H10.145C9.75767 3.97143 9.44345 4.28519 9.44345 4.67294V5.97183H4.72013C2.11458 5.97457 0.00319699 8.08595 0 10.6915V42.6828C0.00274028 45.2889 2.11412 47.4007 4.72013 47.4034ZM10.8465 5.37445H22.4465V8.97152H10.8465V5.37445Z" fill="#00ACEA"/>
<path d="M16.6462 18.9708C12.3847 18.9708 8.92963 22.4258 8.92963 26.6874C8.92963 30.9494 12.3847 34.404 16.6462 34.404C20.9083 34.404 24.3629 30.9494 24.3629 26.6874C24.3583 22.4276 20.906 18.9758 16.6462 18.9708ZM16.6462 33.001C13.1592 33.001 10.3326 30.1744 10.3326 26.6874C10.3326 23.2009 13.1592 20.3738 16.6462 20.3738C20.1332 20.3738 22.9598 23.2009 22.9598 26.6874C22.9562 30.173 20.1314 32.9973 16.6462 33.001Z" fill="#00ACEA"/>
<path d="M19.8967 24.1673L15.731 28.1461L13.5721 25.9868C13.2981 25.7132 12.8542 25.7132 12.5802 25.9873C12.3061 26.2613 12.3061 26.7052 12.5802 26.9792L15.2241 29.6232C15.4931 29.8926 15.9288 29.8981 16.2042 29.635L20.8658 25.1825C21.1458 24.9149 21.1563 24.471 20.8887 24.1906C20.621 23.9106 20.1767 23.9001 19.8967 24.1677V24.1673Z" fill="#00ACEA"/>
<path d="M31.1825 36.2464H31.1862C31.631 36.2482 31.99 36.6104 31.9882 37.0552C31.9863 37.4425 32.2992 37.7581 32.6865 37.7595H32.6897C33.076 37.7595 33.3893 37.4471 33.3912 37.0612C33.3957 36.1117 32.7924 35.2663 31.8932 34.9617L31.8945 34.7201C31.8959 34.3323 31.5835 34.0172 31.1958 34.0154H31.1926C30.8066 34.0154 30.4929 34.3278 30.4911 34.7141L30.4901 34.9576C29.463 35.2964 28.8327 36.3304 29.0026 37.3991C29.1721 38.4679 30.0914 39.2557 31.1734 39.2598C31.6182 39.2584 31.9795 39.6179 31.9808 40.0627C31.9827 40.5071 31.6232 40.8688 31.1784 40.8702C31.1743 40.8702 31.1706 40.8692 31.167 40.8692H31.1638C31.1606 40.8692 31.1579 40.8692 31.1551 40.8692C30.7153 40.861 30.3636 40.5011 30.365 40.0613C30.3668 39.674 30.054 39.3584 29.6662 39.3571H29.6635C29.2771 39.3571 28.9634 39.669 28.962 40.0554C28.9592 41.004 29.5621 41.848 30.4595 42.154L30.4586 42.465C30.4563 42.8527 30.7692 43.1683 31.1569 43.1702H31.1597C31.5461 43.1702 31.8598 42.8578 31.8612 42.4714L31.8626 42.1604C32.8902 41.821 33.52 40.787 33.3505 39.7183C33.1806 38.6496 32.2617 37.8613 31.1793 37.8568C30.7345 37.8559 30.3751 37.4946 30.376 37.0498C30.3769 36.6049 30.7381 36.2455 31.183 36.2464H31.1825Z" fill="#0635C9"/>
<path d="M44.0609 27.6282L45.5073 27.6346H45.5105C45.8978 27.6351 46.2125 27.3218 46.2134 26.9345C46.2143 26.5472 45.9006 26.2321 45.5133 26.2316L44.0669 26.2252H44.0646C43.6773 26.2243 43.3626 26.5381 43.3617 26.9254C43.3608 27.3126 43.6741 27.6273 44.0618 27.6282H44.0609Z" fill="#0635C9"/>
<path d="M29.4931 27.588L41.5636 27.6177H41.5654C41.9527 27.6182 42.2674 27.3044 42.2678 26.9171C42.2683 26.5298 41.9545 26.2152 41.5672 26.2147L29.4963 26.185H29.495C29.1072 26.1846 28.793 26.4983 28.7925 26.8856C28.7921 27.2729 29.1058 27.5876 29.4931 27.588Z" fill="#0635C9"/>
<path d="M44.0769 23.9485L45.5229 23.9549H45.5261C45.9134 23.9558 46.2281 23.6421 46.229 23.2548C46.2299 22.8675 45.9166 22.5528 45.5288 22.5519L44.0829 22.5455H44.0797C43.6924 22.545 43.3777 22.8583 43.3768 23.2456C43.3759 23.6334 43.6896 23.9481 44.0769 23.9485Z" fill="#0635C9"/>
<path d="M29.5082 23.9083L41.5787 23.938H41.5805C41.9678 23.9385 42.2825 23.6247 42.2829 23.2374C42.2834 22.8501 41.9696 22.5354 41.5823 22.535L29.5119 22.5053H29.51C29.1227 22.5048 28.8081 22.8186 28.8076 23.2059C28.8072 23.5932 29.1209 23.9079 29.5082 23.9083Z" fill="#0635C9"/>
<path d="M44.0454 31.308L45.4927 31.3139H45.4945C45.8823 31.3148 46.1969 31.0015 46.1979 30.6138C46.1983 30.2265 45.885 29.9118 45.4977 29.9109L44.0513 29.9049H44.0481C43.6608 29.904 43.3461 30.2178 43.3452 30.6051C43.3443 30.9924 43.6581 31.3071 44.0454 31.308Z" fill="#0635C9"/>
<path d="M29.4776 31.2673L41.5481 31.2975H41.5499C41.9372 31.2979 42.2519 30.9842 42.2523 30.5969C42.2528 30.2091 41.939 29.8949 41.5517 29.8944L29.4808 29.8643H29.479C29.0917 29.8638 28.7775 30.1776 28.777 30.5654C28.7766 30.9526 29.0899 31.2669 29.4776 31.2673Z" fill="#0635C9"/>
<path d="M42.9502 42.75C43.3375 42.75 43.6517 42.4362 43.6521 42.0489C43.6521 41.6612 43.3384 41.347 42.9511 41.347L35.514 41.3369H35.5131C35.1258 41.3365 34.8116 41.6502 34.8111 42.038C34.8111 42.4253 35.1249 42.7395 35.5121 42.74L42.9493 42.75H42.9502Z" fill="#0635C9"/>
<path d="M45.2785 41.3566L44.9908 41.3556H44.988C44.6007 41.3547 44.2861 41.668 44.2852 42.0553C44.2842 42.4431 44.598 42.7578 44.9853 42.7587L45.273 42.7596H45.2762C45.6635 42.7605 45.9782 42.4472 45.9791 42.0599C45.98 41.6721 45.6667 41.3575 45.279 41.3566H45.2785Z" fill="#0635C9"/>
<path d="M35.535 37.5257C35.1491 37.5161 34.828 37.8193 34.8162 38.2052C34.8038 38.5907 35.1057 38.9136 35.4912 38.9278L35.8132 38.9378H35.8355C36.2228 38.9437 36.5416 38.6346 36.5476 38.2468C36.5535 37.8595 36.2443 37.5407 35.857 37.5348L35.535 37.5257Z" fill="#0635C9"/>
<path d="M45.2758 37.5453L37.8729 37.5439C37.4856 37.5439 37.1714 37.8581 37.1714 38.2454C37.1714 38.6327 37.4856 38.9469 37.8729 38.9469L45.2758 38.9483C45.663 38.9483 45.9773 38.6341 45.9773 38.2468C45.9773 37.8591 45.663 37.5453 45.2758 37.5453Z" fill="#0635C9"/>
<path d="M44.1372 52.1418C46.772 52.1368 48.9089 50.0067 48.9222 47.3724L48.977 30.6905L55.2554 30.8175C55.4436 30.8211 55.6253 30.7494 55.7596 30.6183C55.8943 30.4868 55.9706 30.3069 55.9711 30.1191L55.9998 23.3685C56.0099 21.0484 54.1369 19.1594 51.8168 19.1494H51.8004L30.4628 19.0804H30.4436C28.1395 19.0809 26.2692 20.9438 26.2592 23.2479L26.1811 44.4786H21.9579C21.5701 44.4786 21.2563 44.7929 21.2563 45.1802V47.6286C21.2591 50.12 23.2778 52.1386 25.7691 52.1418H44.1372ZM54.5968 23.3625L54.5713 29.4003L48.9815 29.2875L49.0012 23.3383C49.0076 21.7933 50.2654 20.546 51.8109 20.5524C53.3559 20.5588 54.6032 21.8166 54.5968 23.3621V23.3625ZM27.6627 23.2534C27.6695 21.7211 28.9136 20.483 30.4454 20.483H30.4573L48.6751 20.5414C47.9832 21.3069 47.5995 22.3011 47.5977 23.3324L47.5762 29.8757C47.5726 29.9036 47.5703 29.9319 47.5698 29.9597C47.5689 29.9963 47.5712 30.0324 47.5758 30.068L47.5191 47.3669C47.516 49.2348 45.9992 50.7466 44.1313 50.7434C42.2633 50.7406 40.7516 49.2239 40.7548 47.3559V45.1797C40.7548 44.7924 40.4406 44.4782 40.0533 44.4782H27.585L27.6627 23.2534ZM22.6594 47.6286V45.8812H39.3518V47.3564C39.3513 48.6256 39.8564 49.8427 40.7557 50.7388H25.7691C24.0523 50.7365 22.6612 49.3454 22.6594 47.6286Z" fill="#0635C9"/>
</svg>
