<svg width="56" height="56" viewBox="0 0 56 56" fill="none" xmlns="http://www.w3.org/2000/svg">
<path d="M18.6276 9.841H47.9163C47.9172 7.25261 45.8185 5.15389 43.2301 5.15481H31.5146V8.20083H24.4853V5.15481H12.7699C10.1815 5.15389 8.08276 7.25261 8.08368 9.841V50.1423C8.08276 52.7306 10.1815 54.8294 12.7699 54.8284H13.9414V14.5272C13.9405 11.9388 16.0392 9.84009 18.6276 9.841Z" fill="#D4E1F4"/>
<path d="M43.2301 3.98326H32.6862V1.17155C32.6843 0.525366 32.1608 0.00183054 31.5146 0H24.4853C23.8391 0.00183054 23.3156 0.525366 23.3138 1.17155V3.98326H12.7698C9.53528 3.98464 6.91348 6.60643 6.91211 9.841V50.1423C6.91348 53.3768 9.53528 55.9986 12.7698 56H43.2301C46.4647 55.9986 49.0865 53.3768 49.0878 50.1423V9.841C49.0865 6.60643 46.4647 3.98464 43.2301 3.98326ZM25.6569 2.3431H30.3431V7.02929H25.6569V2.3431ZM46.7447 50.1423C46.7393 52.0808 45.1686 53.6514 43.2301 53.6569H12.7698C10.8313 53.6514 9.2607 52.0808 9.25521 50.1423V9.841C9.2607 7.90246 10.8313 6.33185 12.7698 6.32636H23.3138V8.20084C23.3156 8.84702 23.8391 9.37055 24.4853 9.37239H31.5146C32.1608 9.37055 32.6843 8.84702 32.6862 8.20084V6.32636H43.2301C45.1686 6.33185 46.7393 7.90246 46.7447 9.841V50.1423Z" fill="#00AFEF"/>
<path d="M40.676 47.3305H15.3239C14.6768 47.3305 14.1523 47.855 14.1523 48.5021C14.1523 49.1492 14.6768 49.6736 15.3239 49.6736H40.6879C41.335 49.6704 41.8567 49.1432 41.8535 48.4961C41.8503 47.849 41.3231 47.3273 40.676 47.3305V47.3305Z" fill="#00AFEF"/>
<path d="M21.1817 44.5188H34.8302C35.4773 44.5188 36.0018 43.9944 36.0018 43.3473C36.0018 42.7002 35.4773 42.1757 34.8302 42.1757H21.1817C20.5346 42.1757 20.0101 42.7002 20.0101 43.3473C20.0101 43.9944 20.5346 44.5188 21.1817 44.5188Z" fill="#00AFEF"/>
<path d="M28 25.9265C31.3421 25.9297 34.0536 23.2232 34.0568 19.8811C34.06 16.5394 31.3535 13.8275 28.0119 13.8243C24.6697 13.8211 21.9578 16.5275 21.9546 19.8696C21.9537 23.2104 24.6588 25.921 28 25.9265ZM28 16.1674C29.5005 16.1651 30.8551 17.0675 31.4304 18.4537C32.0056 19.8399 31.689 21.4361 30.6277 22.4974C29.5664 23.5586 27.9702 23.8753 26.584 23.3001C25.1979 22.7244 24.2954 21.3702 24.2977 19.8696C24.2977 17.8249 25.9552 16.1674 28 16.1674Z" fill="#0635C9"/>
<path d="M28 28.1638C25.5224 28.1483 23.145 29.1423 21.416 30.917C19.6587 32.7095 18.6981 35.1464 18.6981 37.7943C18.7 38.4405 19.223 38.964 19.8697 38.9659H36.1304C36.777 38.964 37.3001 38.4405 37.3019 37.7943C37.3019 35.1464 36.3414 32.7095 34.584 30.917C32.8551 29.1423 30.4777 28.1483 28 28.1638ZM21.1231 36.6228C21.3236 35.0906 22.0142 33.6646 23.0914 32.5571C24.3879 31.2456 26.1558 30.5069 28 30.5069C29.8443 30.5069 31.6122 31.2456 32.9086 32.5571C33.9836 33.6664 34.6737 35.0915 34.8769 36.6228H21.1231Z" fill="#0635C9"/>
</svg>
