<svg width="40" height="41" viewBox="0 0 40 41" fill="none" xmlns="http://www.w3.org/2000/svg">
<path d="M3.75 31.4576V3.44201C3.75002 3.22003 3.79377 3.00023 3.87875 2.79517C3.96372 2.5901 4.08827 2.40378 4.24526 2.24685C4.40225 2.08992 4.58863 1.96546 4.79373 1.88057C4.99883 1.79567 5.21865 1.75202 5.44062 1.75209H3.09687C2.8749 1.75202 2.65508 1.79567 2.44998 1.88057C2.24488 1.96546 2.0585 2.08992 1.90151 2.24685C1.74452 2.40378 1.61997 2.5901 1.535 2.79517C1.45002 3.00023 1.40627 3.22003 1.40625 3.44201V31.4576C1.40629 31.906 1.58442 32.336 1.90147 32.653C2.21851 32.9701 2.64851 33.1482 3.09687 33.1483H5.44062C4.99226 33.1482 4.56226 32.9701 4.24522 32.653C3.92817 32.336 3.75004 31.906 3.75 31.4576V31.4576Z" fill="#D4E1F4"/>
<path d="M8.49893 13.8068C8.62325 13.8068 8.74248 13.7574 8.83038 13.6695C8.91829 13.5816 8.96768 13.4623 8.96768 13.338C8.96768 13.2137 8.91829 13.0945 8.83038 13.0066C8.74248 12.9187 8.62325 12.8693 8.49893 12.8693H6.2558C6.07474 12.8694 5.90113 12.9414 5.77308 13.0694C5.64503 13.1974 5.57298 13.371 5.57275 13.5521V18.0326C5.573 18.2136 5.64505 18.3872 5.7731 18.5152C5.90115 18.6432 6.07474 18.7152 6.2558 18.7154H10.7421C10.9232 18.7152 11.0968 18.6432 11.2248 18.5152C11.3529 18.3872 11.4249 18.2136 11.4252 18.0326V16.5158C11.4252 16.3915 11.3758 16.2723 11.2879 16.1844C11.2 16.0965 11.0807 16.0471 10.9564 16.0471C10.8321 16.0471 10.7129 16.0965 10.625 16.1844C10.5371 16.2723 10.4877 16.3915 10.4877 16.5158V17.7779H6.51025V13.8068H8.49893Z" fill="#00AFEF"/>
<path d="M11.8125 12.6062C11.7651 12.5669 11.7105 12.5372 11.6517 12.5189C11.593 12.5006 11.5311 12.4941 11.4698 12.4997C11.4085 12.5054 11.349 12.523 11.2945 12.5516C11.24 12.5803 11.1917 12.6194 11.1523 12.6667L8.9162 15.3537L8.1987 14.7731C8.15093 14.7335 8.09578 14.7038 8.03646 14.6857C7.97713 14.6676 7.9148 14.6615 7.85308 14.6676C7.79136 14.6738 7.73147 14.6922 7.6769 14.7216C7.62232 14.7511 7.57414 14.7911 7.53514 14.8394C7.49614 14.8876 7.46711 14.9431 7.44971 15.0026C7.43232 15.0622 7.42692 15.1246 7.43382 15.1862C7.44072 15.2479 7.45978 15.3075 7.48991 15.3617C7.52004 15.416 7.56062 15.4637 7.60932 15.5021L8.47182 16.1999C8.61355 16.3165 8.7934 16.3765 8.97673 16.3684C9.16006 16.3603 9.33391 16.2846 9.46479 16.156L9.48362 16.1379L11.873 13.2665C11.9124 13.2192 11.9421 13.1646 11.9604 13.1058C11.9786 13.047 11.9852 12.9852 11.9795 12.9238C11.9739 12.8625 11.9563 12.8029 11.9276 12.7484C11.8989 12.6939 11.8598 12.6456 11.8125 12.6062V12.6062Z" fill="#00AFEF"/>
<path d="M5.57275 27.9676C5.57298 28.1486 5.64502 28.3222 5.77307 28.4502C5.90113 28.5783 6.07473 28.6503 6.2558 28.6504H10.7421C10.9232 28.6503 11.0968 28.5783 11.2249 28.4502C11.3529 28.3222 11.4249 28.1486 11.4252 27.9676V26.4508C11.4252 26.3265 11.3758 26.2073 11.2879 26.1194C11.2 26.0315 11.0807 25.9821 10.9564 25.9821C10.8321 25.9821 10.7129 26.0315 10.625 26.1194C10.5371 26.2073 10.4877 26.3265 10.4877 26.4508V27.713H6.51025V23.7418H8.49893C8.62325 23.7418 8.74248 23.6924 8.83038 23.6045C8.91829 23.5166 8.96768 23.3973 8.96768 23.273C8.96768 23.1487 8.91829 23.0295 8.83038 22.9416C8.74248 22.8537 8.62325 22.8043 8.49893 22.8043H6.2558C6.07474 22.8045 5.90115 22.8765 5.7731 23.0045C5.64505 23.1325 5.573 23.306 5.57275 23.4871V27.9676Z" fill="#00AFEF"/>
<path d="M11.8126 22.5412C11.7653 22.5018 11.7107 22.4721 11.6519 22.4538C11.5931 22.4356 11.5313 22.4291 11.47 22.4347C11.4087 22.4403 11.3491 22.458 11.2946 22.4866C11.2401 22.5153 11.1918 22.5544 11.1524 22.6017L8.91659 25.2886L8.19909 24.7081C8.15133 24.6686 8.09621 24.639 8.03692 24.6209C7.97763 24.6029 7.91535 24.5968 7.85369 24.6029C7.79202 24.6091 7.73219 24.6275 7.67766 24.6569C7.62313 24.6864 7.57498 24.7263 7.536 24.7745C7.49701 24.8227 7.46797 24.8781 7.45055 24.9376C7.43312 24.9971 7.42767 25.0594 7.43449 25.121C7.44132 25.1826 7.46029 25.2422 7.49032 25.2964C7.52034 25.3507 7.56081 25.3984 7.6094 25.4369L8.4719 26.1347C8.61362 26.2512 8.79346 26.3113 8.97679 26.3032C9.16012 26.2951 9.33397 26.2194 9.46487 26.0908L9.4837 26.0727L11.8731 23.2013C11.9124 23.154 11.9421 23.0994 11.9604 23.0406C11.9787 22.9818 11.9852 22.92 11.9796 22.8587C11.9739 22.7974 11.9563 22.7378 11.9277 22.6833C11.899 22.6288 11.8599 22.5805 11.8126 22.5412V22.5412Z" fill="#00AFEF"/>
<path d="M36.9034 1.28334H3.09656C2.52418 1.28394 1.97541 1.51156 1.57065 1.91627C1.16588 2.32097 0.938182 2.86971 0.9375 3.44209V31.4577C0.938016 32.0296 1.16522 32.5779 1.56931 32.9825C1.9734 33.3872 2.52143 33.6151 3.09328 33.6164L21.3329 33.7454L21.3395 32.8079L3.09656 32.6788C2.7728 32.6785 2.46238 32.5498 2.23338 32.3209C2.00438 32.0921 1.8755 31.7817 1.875 31.458V9.12561H38.125V31.458C38.1246 31.7818 37.9957 32.0922 37.7667 32.3211C37.5377 32.5501 37.2273 32.6788 36.9034 32.6791C36.8949 32.6791 36.8864 32.6791 36.8779 32.6799L34.5134 32.8089L34.5644 33.7449L36.917 33.6166C37.487 33.6124 38.0323 33.3833 38.4341 32.979C38.8359 32.5747 39.0618 32.028 39.0625 31.458V3.44209C39.0618 2.86971 38.8341 2.32097 38.4294 1.91627C38.0246 1.51156 37.4758 1.28394 36.9034 1.28334V1.28334ZM1.875 8.18811V3.44209C1.87539 3.11826 2.00423 2.80781 2.23324 2.57886C2.46225 2.34991 2.77273 2.22115 3.09656 2.22084H36.9034C37.2273 2.22115 37.5378 2.34991 37.7668 2.57886C37.9958 2.80781 38.1246 3.11826 38.125 3.44209V8.18811H1.875Z" fill="#00AFEF"/>
<path d="M4.85938 3.34888C4.50399 3.34888 4.15658 3.45427 3.86109 3.65171C3.56559 3.84916 3.33528 4.12979 3.19928 4.45812C3.06328 4.78646 3.02769 5.14775 3.09703 5.49631C3.16636 5.84487 3.3375 6.16504 3.58879 6.41634C3.84009 6.66764 4.16026 6.83877 4.50882 6.90811C4.85738 6.97744 5.21867 6.94185 5.54701 6.80585C5.87535 6.66985 6.15598 6.43954 6.35342 6.14405C6.55087 5.84855 6.65625 5.50115 6.65625 5.14576C6.65575 4.66935 6.46628 4.2126 6.12941 3.87572C5.79254 3.53885 5.33578 3.34938 4.85938 3.34888V3.34888ZM4.85938 6.00451C4.68941 6.00451 4.52326 5.95411 4.38193 5.85968C4.24061 5.76525 4.13046 5.63103 4.06542 5.474C4.00037 5.31697 3.98335 5.14418 4.01651 4.97748C4.04967 4.81078 4.13152 4.65765 4.25171 4.53746C4.37189 4.41728 4.52502 4.33543 4.69172 4.30227C4.85842 4.26911 5.03121 4.28613 5.18824 4.35117C5.34527 4.41622 5.47949 4.52637 5.57392 4.66769C5.66835 4.80901 5.71875 4.97516 5.71875 5.14513C5.71852 5.37298 5.62791 5.59144 5.46679 5.75255C5.30568 5.91367 5.08723 6.00428 4.85938 6.00451V6.00451Z" fill="#00AFEF"/>
<path d="M9.59644 3.34888C9.24105 3.34888 8.89364 3.45427 8.59815 3.65171C8.30265 3.84916 8.07234 4.12979 7.93634 4.45812C7.80034 4.78646 7.76475 5.14775 7.83409 5.49631C7.90342 5.84487 8.07456 6.16504 8.32585 6.41634C8.57715 6.66764 8.89732 6.83877 9.24588 6.90811C9.59444 6.97744 9.95574 6.94185 10.2841 6.80585C10.6124 6.66985 10.893 6.43954 11.0905 6.14405C11.2879 5.84855 11.3933 5.50115 11.3933 5.14576C11.3928 4.66935 11.2033 4.2126 10.8665 3.87572C10.5296 3.53885 10.0728 3.34938 9.59644 3.34888V3.34888ZM9.59644 6.00451C9.42647 6.00451 9.26032 5.95411 9.11899 5.85968C8.97767 5.76525 8.86752 5.63103 8.80248 5.474C8.73743 5.31697 8.72042 5.14418 8.75357 4.97748C8.78673 4.81078 8.86858 4.65765 8.98877 4.53746C9.10895 4.41728 9.26208 4.33543 9.42878 4.30227C9.59548 4.26911 9.76828 4.28613 9.92531 4.35117C10.0823 4.41622 10.2166 4.52637 10.311 4.66769C10.4054 4.80901 10.4558 4.97516 10.4558 5.14513C10.4556 5.37298 10.365 5.59144 10.2039 5.75255C10.0427 5.91367 9.82429 6.00428 9.59644 6.00451V6.00451Z" fill="#00AFEF"/>
<path d="M14.3333 3.34888C13.9779 3.34888 13.6305 3.45427 13.335 3.65171C13.0395 3.84916 12.8092 4.12979 12.6732 4.45812C12.5372 4.78646 12.5016 5.14775 12.5709 5.49631C12.6402 5.84487 12.8114 6.16504 13.0627 6.41634C13.314 6.66764 13.6341 6.83877 13.9827 6.90811C14.3313 6.97744 14.6926 6.94185 15.0209 6.80585C15.3492 6.66985 15.6299 6.43954 15.8273 6.14405C16.0247 5.84855 16.1301 5.50115 16.1301 5.14576C16.1296 4.66935 15.9402 4.2126 15.6033 3.87572C15.2664 3.53885 14.8097 3.34938 14.3333 3.34888V3.34888ZM14.3333 6.00451C14.1633 6.00451 13.9971 5.95411 13.8558 5.85968C13.7145 5.76525 13.6043 5.63103 13.5393 5.474C13.4743 5.31697 13.4572 5.14418 13.4904 4.97748C13.5236 4.81078 13.6054 4.65765 13.7256 4.53746C13.8458 4.41728 13.9989 4.33543 14.1656 4.30227C14.3323 4.26911 14.5051 4.28613 14.6621 4.35117C14.8192 4.41622 14.9534 4.52637 15.0478 4.66769C15.1422 4.80901 15.1926 4.97516 15.1926 5.14513C15.1924 5.37299 15.1018 5.59146 14.9407 5.75257C14.7796 5.91369 14.5611 6.0043 14.3333 6.00451V6.00451Z" fill="#00AFEF"/>
<path d="M36.5573 4.58803H21.3281C21.2038 4.58803 21.0846 4.63741 20.9967 4.72532C20.9088 4.81323 20.8594 4.93246 20.8594 5.05678C20.8594 5.1811 20.9088 5.30033 20.9967 5.38824C21.0846 5.47614 21.2038 5.52553 21.3281 5.52553H36.5573C36.6816 5.52553 36.8008 5.47614 36.8887 5.38824C36.9766 5.30033 37.026 5.1811 37.026 5.05678C37.026 4.93246 36.9766 4.81323 36.8887 4.72532C36.8008 4.63741 36.6816 4.58803 36.5573 4.58803Z" fill="#00AFEF"/>
<path d="M16.248 14.1335H34.5391C34.6634 14.1335 34.7826 14.0841 34.8705 13.9962C34.9584 13.9083 35.0078 13.7891 35.0078 13.6647C35.0078 13.5404 34.9584 13.4212 34.8705 13.3333C34.7826 13.2454 34.6634 13.196 34.5391 13.196H16.248C16.1237 13.196 16.0045 13.2454 15.9166 13.3333C15.8287 13.4212 15.7793 13.5404 15.7793 13.6647C15.7793 13.7891 15.8287 13.9083 15.9166 13.9962C16.0045 14.0841 16.1237 14.1335 16.248 14.1335Z" fill="#0635C9"/>
<path d="M16.248 18.0172H34.5391C34.6634 18.0172 34.7826 17.9678 34.8705 17.8799C34.9584 17.792 35.0078 17.6727 35.0078 17.5484C35.0078 17.4241 34.9584 17.3049 34.8705 17.217C34.7826 17.1291 34.6634 17.0797 34.5391 17.0797H16.248C16.1237 17.0797 16.0045 17.1291 15.9166 17.217C15.8287 17.3049 15.7793 17.4241 15.7793 17.5484C15.7793 17.6727 15.8287 17.792 15.9166 17.8799C16.0045 17.9678 16.1237 18.0172 16.248 18.0172V18.0172Z" fill="#0635C9"/>
<path d="M34.5389 23.131H30.7305C30.6061 23.131 30.4869 23.1804 30.399 23.2683C30.3111 23.3562 30.2617 23.4754 30.2617 23.5997C30.2617 23.7241 30.3111 23.8433 30.399 23.9312C30.4869 24.0191 30.6061 24.0685 30.7305 24.0685H34.5389C34.6632 24.0685 34.7824 24.0191 34.8704 23.9312C34.9583 23.8433 35.0076 23.7241 35.0076 23.5997C35.0076 23.4754 34.9583 23.3562 34.8704 23.2683C34.7824 23.1804 34.6632 23.131 34.5389 23.131Z" fill="#0635C9"/>
<path d="M16.248 24.0685H22.1886C22.3129 24.0685 22.4322 24.0191 22.5201 23.9312C22.608 23.8433 22.6574 23.7241 22.6574 23.5997C22.6574 23.4754 22.608 23.3562 22.5201 23.2683C22.4322 23.1804 22.3129 23.131 22.1886 23.131H16.248C16.1237 23.131 16.0045 23.1804 15.9166 23.2683C15.8287 23.3562 15.7793 23.4754 15.7793 23.5997C15.7793 23.7241 15.8287 23.8433 15.9166 23.9312C16.0045 24.0191 16.1237 24.0685 16.248 24.0685Z" fill="#0635C9"/>
<path d="M16.248 27.9522H17.8491C17.9734 27.9522 18.0926 27.9029 18.1805 27.815C18.2684 27.727 18.3178 27.6078 18.3178 27.4835C18.3178 27.3592 18.2684 27.2399 18.1805 27.152C18.0926 27.0641 17.9734 27.0147 17.8491 27.0147H16.248C16.1237 27.0147 16.0045 27.0641 15.9166 27.152C15.8287 27.2399 15.7793 27.3592 15.7793 27.4835C15.7793 27.6078 15.8287 27.727 15.9166 27.815C16.0045 27.9029 16.1237 27.9522 16.248 27.9522V27.9522Z" fill="#0635C9"/>
<path d="M25.9451 19.9812C25.4626 19.9818 25.0001 20.1738 24.659 20.5151C24.318 20.8564 24.1262 21.319 24.1259 21.8015V31.1499L24.0913 31.0999C23.7215 30.5638 23.227 30.1256 22.6504 29.8229C22.0738 29.5202 21.4323 29.3621 20.781 29.3621C20.6241 29.3621 20.4696 29.4014 20.3317 29.4764C20.1938 29.5514 20.0769 29.6596 19.9916 29.7914C19.9062 29.9231 19.8552 30.0741 19.8431 30.2306C19.831 30.387 19.8583 30.5441 19.9224 30.6873L20.0014 30.864C20.3664 31.6803 20.6609 32.5263 20.8817 33.3927L21.8766 37.3021C21.8781 37.3084 21.8799 37.3147 21.8818 37.3211C22.0867 38.0163 22.5118 38.6262 23.0932 39.059C23.6746 39.4918 24.3809 39.7241 25.1057 39.7208H31.6416C32.5341 39.7196 33.3898 39.3645 34.0208 38.7332C34.6518 38.102 35.0067 37.2462 35.0076 36.3536V31.0628C35.008 30.7579 34.9263 30.4585 34.7711 30.196C34.6159 29.9336 34.3929 29.7177 34.1255 29.5712C33.8581 29.4246 33.5562 29.3527 33.2515 29.363C32.9468 29.3734 32.6504 29.4656 32.3936 29.6299C32.2951 29.4121 32.1514 29.2177 31.9722 29.0596C31.7929 28.9014 31.5821 28.7832 31.3537 28.7126C31.1253 28.6421 30.8845 28.6208 30.6473 28.6503C30.41 28.6798 30.1818 28.7593 29.9776 28.8836C29.8887 28.6824 29.76 28.5013 29.5993 28.3512C29.4386 28.2011 29.2491 28.0851 29.0424 28.0102C28.8356 27.9352 28.6159 27.9029 28.3963 27.9152C28.1767 27.9274 27.9619 27.984 27.7648 28.0815V21.8012C27.7643 21.3187 27.5725 20.8561 27.2313 20.5149C26.8902 20.1736 26.4276 19.9817 25.9451 19.9812V19.9812ZM27.7843 29.5501C27.7843 29.3646 27.858 29.1868 27.9891 29.0556C28.1202 28.9245 28.2981 28.8508 28.4835 28.8508C28.669 28.8508 28.8468 28.9245 28.9779 29.0556C29.1091 29.1868 29.1827 29.3646 29.1827 29.5501V30.0813C29.1706 30.1631 29.1645 30.2457 29.1645 30.3284V32.1684C29.1645 32.2927 29.2138 32.412 29.3018 32.4999C29.3897 32.5878 29.5089 32.6372 29.6332 32.6372H29.6423C29.6423 32.6372 29.6484 32.6372 29.6515 32.6372C29.7758 32.6372 29.895 32.5878 29.9829 32.4999C30.0709 32.412 30.1202 32.2927 30.1202 32.1684V30.1651C30.1601 29.9839 30.2655 29.8239 30.4163 29.7157C30.567 29.6075 30.7524 29.5589 30.9368 29.5791C31.1212 29.5993 31.2917 29.687 31.4154 29.8252C31.5391 29.9635 31.6074 30.1426 31.607 30.3281V32.6543C31.607 32.7786 31.6564 32.8978 31.7443 32.9857C31.8322 33.0736 31.9515 33.123 32.0758 33.123C32.2001 33.123 32.3193 33.0736 32.4072 32.9857C32.4952 32.8978 32.5445 32.7786 32.5445 32.6543V31.0628C32.5435 30.962 32.5625 30.862 32.6004 30.7686C32.6382 30.6752 32.6942 30.5902 32.7651 30.5186C32.836 30.447 32.9204 30.3901 33.0135 30.3513C33.1065 30.3125 33.2063 30.2925 33.3071 30.2925C33.4079 30.2925 33.5077 30.3125 33.6007 30.3513C33.6937 30.3901 33.7781 30.447 33.849 30.5186C33.9199 30.5902 33.9759 30.6752 34.0138 30.7686C34.0517 30.862 34.0706 30.962 34.0696 31.0628V36.3536C34.069 36.9976 33.813 37.615 33.3579 38.0704C32.9027 38.5259 32.2855 38.7823 31.6416 38.7833H25.1057C24.5844 38.7856 24.0763 38.6191 23.6575 38.3085C23.2387 37.998 22.9318 37.5602 22.7826 37.0606L21.7904 33.1613C21.5565 32.2431 21.2445 31.3466 20.8577 30.4816L20.781 30.2996C21.2805 30.2996 21.7726 30.4209 22.2148 30.653C22.6571 30.8852 23.0364 31.2213 23.3201 31.6324L24.1262 32.8003V34.5412C24.1262 34.6655 24.1756 34.7847 24.2635 34.8726C24.3514 34.9605 24.4706 35.0099 24.5949 35.0099C24.7192 35.0099 24.8385 34.9605 24.9264 34.8726C25.0143 34.7847 25.0637 34.6655 25.0637 34.5412V21.8012C25.0637 21.5674 25.1566 21.3431 25.3219 21.1778C25.4873 21.0124 25.7116 20.9195 25.9454 20.9195C26.1792 20.9195 26.4035 21.0124 26.5689 21.1778C26.7342 21.3431 26.8271 21.5674 26.8271 21.8012V30.1221C26.8271 30.1679 26.8339 30.2134 26.8471 30.2572V32.1681C26.8471 32.2924 26.8965 32.4117 26.9844 32.4996C27.0723 32.5875 27.1915 32.6369 27.3159 32.6369C27.4402 32.6369 27.5594 32.5875 27.6473 32.4996C27.7352 32.4117 27.7846 32.2924 27.7846 32.1681L27.7843 29.5501Z" fill="#0635C9"/>
</svg>
