<?xml version="1.0" encoding="iso-8859-1"?>
<!-- Generator: Adobe Illustrator 19.0.0, SVG Export Plug-In . SVG Version: 6.00 Build 0)  -->
<svg version="1.1" id="Layer_1" xmlns="http://www.w3.org/2000/svg" xmlns:xlink="http://www.w3.org/1999/xlink" x="0px" y="0px"
	 viewBox="0 0 512 512" style="enable-background:new 0 0 512 512;" xml:space="preserve">
<path style="fill:#CEE8FA;" d="M296.3,116.532V395.47c0,36.816-42.009,57.855-71.491,35.803L30.621,286.017
	c-20.043-14.993-20.043-45.041,0-60.034L224.809,80.729C254.291,58.677,296.3,79.714,296.3,116.532z"/>
<path style="fill:#2D527C;" d="M512,124.847c0-8.61-6.981-15.589-15.589-15.589H381.652c-8.608,0-15.589,6.979-15.589,15.589
	c0,14.008-5.076,27.555-14.29,38.144c-5.653,6.494-4.97,16.34,1.525,21.993c6.494,5.653,16.34,4.971,21.993-1.525
	c10.699-12.293,17.765-27.184,20.577-43.024h84.26c-7.793,86.772-79.949,155.287-168.238,157.308V116.53
	c0-33.293-27.131-60.379-60.48-60.379c-12.933,0-25.36,4.182-35.939,12.094L21.284,213.501C7.757,223.618,0,239.109,0,256.001
	s7.757,32.383,21.282,42.5L215.47,443.755c10.579,7.913,23.006,12.094,35.939,12.094c33.349,0,60.48-27.086,60.48-60.379v-66.552
	C422.598,326.771,512,236.059,512,124.847z M280.711,395.47c0,18.038-15.21,29.201-29.302,29.201
	c-6.147,0-12.117-2.034-17.262-5.883L39.957,273.534c-5.579-4.173-8.78-10.565-8.78-17.533s3.2-13.36,8.781-17.534L234.147,93.212
	c5.144-3.849,11.115-5.883,17.262-5.883c14.092,0,29.302,11.165,29.302,29.201V395.47z"/>
<g>
</g>
<g>
</g>
<g>
</g>
<g>
</g>
<g>
</g>
<g>
</g>
<g>
</g>
<g>
</g>
<g>
</g>
<g>
</g>
<g>
</g>
<g>
</g>
<g>
</g>
<g>
</g>
<g>
</g>
</svg>
